<svg width="31" height="38" viewBox="0 0 31 38" fill="none" xmlns="http://www.w3.org/2000/svg">
<path d="M16.7179 30.4473C15.7132 30.4473 14.7312 30.4473 13.7189 30.4473C13.7114 30.5909 13.7038 30.7193 13.7038 30.8553C13.7038 32.4039 13.6963 33.9524 13.7038 35.501C13.7038 36.4604 13.3563 37.2234 12.5027 37.6993C11.0674 38.4924 9.3451 37.4273 9.30733 35.7201C9.27712 34.3755 9.29978 33.0233 9.29978 31.6787C9.29978 31.2783 9.29978 30.8779 9.29978 30.4322C8.82387 30.4322 8.38573 30.4096 7.95515 30.4398C6.42923 30.5304 5.28101 29.3596 5.28856 27.7732C5.29611 24.185 5.28856 20.5968 5.28856 17.0086C5.28856 15.7093 5.29611 14.4176 5.28101 13.1183C5.28101 12.8312 5.34899 12.7255 5.65871 12.7255C12.0268 12.733 18.3949 12.733 24.763 12.7255C25.0349 12.7255 25.1331 12.7935 25.1331 13.0805C25.1256 18.0058 25.1256 22.9235 25.1256 27.8487C25.1256 29.3293 24 30.5229 22.4968 30.4398C22.0586 30.4171 21.6205 30.4322 21.1446 30.4322C21.137 30.5909 21.1219 30.7268 21.1219 30.8628C21.1219 32.4265 21.1219 33.9827 21.1219 35.5463C21.1219 36.5208 20.7367 37.2913 19.8528 37.737C18.478 38.432 16.8085 37.4575 16.7405 35.8712C16.6726 34.2244 16.7179 32.5776 16.7103 30.9232C16.7179 30.7646 16.7179 30.6211 16.7179 30.4473Z" fill="white"/>
<path d="M25.1104 11.8341C18.4931 11.8341 11.9059 11.8341 5.26587 11.8341C5.44717 8.10238 7.1695 5.34514 10.3573 3.44151C10.0703 2.89006 9.79832 2.36128 9.51882 1.82494C9.29975 1.40191 9.08068 0.978882 8.8465 0.563407C8.73319 0.359447 8.68787 0.170595 8.91449 0.0421752C9.13356 -0.0786901 9.24687 0.0799456 9.34507 0.268798C9.80587 1.15263 10.2742 2.02134 10.7426 2.90517C10.7879 2.98827 10.8408 3.07136 10.9088 3.17712C13.7642 1.92314 16.6197 1.91559 19.5204 3.18467C19.747 2.75409 19.9812 2.33106 20.2078 1.90048C20.4949 1.35659 20.782 0.812692 21.069 0.268798C21.1672 0.0874997 21.2956 -0.0937983 21.492 0.0572834C21.5902 0.132824 21.628 0.412325 21.5676 0.533191C21.1672 1.35659 20.7291 2.16487 20.2985 2.97316C20.223 3.11669 20.1474 3.26021 20.0568 3.44907C22.323 4.74082 23.8942 6.60667 24.695 9.07686C24.982 9.96069 25.1482 10.8747 25.1104 11.8341ZM20.6384 7.15812C20.6384 6.652 20.2834 6.28185 19.8075 6.26674C19.3316 6.25919 18.9463 6.63689 18.9388 7.12791C18.9312 7.64158 19.2938 8.0495 19.7773 8.0495C20.2909 8.05706 20.6384 7.68691 20.6384 7.15812ZM10.6368 8.0495C11.1203 8.04195 11.4753 7.65669 11.4753 7.12791C11.4678 6.63689 11.0976 6.25919 10.6217 6.26674C10.1534 6.26674 9.79076 6.652 9.78321 7.15057C9.77566 7.67935 10.1383 8.05706 10.6368 8.0495Z" fill="white"/>
<path d="M30.4057 19.577C30.4057 21.2012 30.4057 22.8253 30.4057 24.4494C30.4057 25.3861 29.9827 26.1038 29.1593 26.5344C27.8222 27.2369 26.2434 26.3379 26.0244 24.7743C26.0017 24.6005 25.9941 24.4268 25.9941 24.2455C25.9941 21.1256 25.9941 18.0058 25.9941 14.8784C25.9941 14.0852 26.1981 13.3827 26.8175 12.8539C27.4672 12.31 28.1999 12.1514 29.0007 12.4838C29.7938 12.8161 30.2395 13.4431 30.3831 14.2816C30.4133 14.478 30.4133 14.682 30.4133 14.886C30.4133 16.4572 30.4133 18.0209 30.4057 19.577Z" fill="white"/>
<path d="M4.41974 19.562C4.41974 21.1483 4.41974 22.7347 4.41974 24.321C4.41974 25.2728 4.05715 26.0434 3.21109 26.5117C1.82114 27.2747 0.113916 26.27 0.0157126 24.6383C-0.0145038 24.1624 0.0081583 23.6789 0.0081583 23.203C0.0081583 20.3702 0.0081583 17.5375 0.0081583 14.7047C0.0081583 13.6849 0.567161 12.8162 1.41322 12.4838C2.78051 11.9474 4.3442 12.9068 4.38953 14.3799C4.44241 16.1022 4.40463 17.8245 4.40463 19.5544C4.40463 19.562 4.41219 19.562 4.41974 19.562Z" fill="white"/>
</svg>
