<svg width="12" height="12" viewBox="0 0 12 12" fill="none" xmlns="http://www.w3.org/2000/svg">
<path d="M5.99359 0.994434C5.88764 0.99609 5.78667 1.03971 5.71285 1.11573C5.63903 1.19175 5.59839 1.29395 5.59984 1.3999V1.5999H3.39984C3.34685 1.59918 3.29425 1.609 3.24509 1.62878C3.19593 1.64856 3.15119 1.67791 3.11347 1.71512C3.07574 1.75234 3.04579 1.79667 3.02534 1.84556C3.0049 1.89445 2.99437 1.94691 2.99437 1.9999H2.39984C2.34683 1.99915 2.29421 2.00895 2.24502 2.02871C2.19583 2.04848 2.15106 2.07782 2.11332 2.11504C2.07557 2.15226 2.04559 2.19661 2.02514 2.24551C2.00468 2.29441 1.99414 2.34689 1.99414 2.3999C1.99414 2.45291 2.00468 2.50539 2.02514 2.5543C2.04559 2.6032 2.07557 2.64755 2.11332 2.68477C2.15106 2.72198 2.19583 2.75133 2.24502 2.77109C2.29421 2.79086 2.34683 2.80065 2.39984 2.7999H9.59984C9.65284 2.80065 9.70547 2.79086 9.75466 2.77109C9.80384 2.75133 9.84861 2.72198 9.88636 2.68477C9.92411 2.64755 9.95408 2.6032 9.97454 2.5543C9.995 2.50539 10.0055 2.45291 10.0055 2.3999C10.0055 2.34689 9.995 2.29441 9.97454 2.24551C9.95408 2.19661 9.92411 2.15226 9.88636 2.11504C9.84861 2.07782 9.80384 2.04848 9.75466 2.02871C9.70547 2.00895 9.65284 1.99915 9.59984 1.9999H9.00531C9.00531 1.94691 8.99478 1.89445 8.97433 1.84556C8.95389 1.79667 8.92393 1.75234 8.88621 1.71512C8.84849 1.67791 8.80375 1.64856 8.75459 1.62878C8.70542 1.609 8.65282 1.59918 8.59984 1.5999H6.39984V1.3999C6.40057 1.34639 6.39056 1.29327 6.37039 1.24369C6.35022 1.19412 6.32032 1.14909 6.28243 1.11128C6.24455 1.07347 6.19947 1.04365 6.14986 1.02358C6.10024 1.00351 6.0471 0.993598 5.99359 0.994434ZM2.39984 3.5999L3.11703 9.69365C3.16423 10.0965 3.50518 10.3999 3.91078 10.3999H8.0889C8.4945 10.3999 8.83505 10.0965 8.88265 9.69365L9.59984 3.5999H2.39984Z" fill="#FF0606"/>
</svg>
