<svg width="24" height="24" viewBox="0 0 24 24" fill="none" xmlns="http://www.w3.org/2000/svg">
<g clip-path="url(#clip0_98_317)">
<path d="M14.9998 13.0002C14.4469 13.0002 13.9999 13.4482 13.9999 14.0001V18.0002C13.9999 18.5511 13.5519 19.0001 12.9998 19.0001H9.99983V4.00026C9.99983 3.14627 9.45583 2.38328 8.63791 2.09928L8.34183 2.00022H12.9998C13.5519 2.00022 13.9999 2.44919 13.9999 3.00033V6.0003C13.9999 6.55218 14.4469 7.00023 14.9998 7.00023C15.5528 7.00023 15.9998 6.55218 15.9998 6.0003V3.00033C15.9998 1.34636 14.6538 0.000366211 12.9998 0.000366211H2.24998C2.21189 0.000366211 2.18003 0.0173949 2.14304 0.0223386C2.09489 0.0183104 2.04893 0.000366211 2.00004 0.000366211C0.897024 0.000366211 0 0.897207 0 2.00022V20C0 20.854 0.544001 21.617 1.36192 21.901L7.37999 23.9071C7.58397 23.9701 7.78684 24.0001 7.99998 24.0001C9.10299 24.0001 9.99983 23.1031 9.99983 22.0001V21.0001H12.9998C14.6538 21.0001 15.9998 19.6542 15.9998 18.0002V14.0001C15.9998 13.4482 15.5528 13.0002 14.9998 13.0002Z" fill="#757575"/>
<path d="M23.7068 9.29304L19.7067 5.29315C19.4209 5.00714 18.9908 4.92108 18.6169 5.07599C18.2439 5.23107 17.9998 5.596 17.9998 6.00011V9.00008H13.9999C13.4479 9.00008 12.9998 9.44795 12.9998 10C12.9998 10.5521 13.4479 10.9999 13.9999 10.9999H17.9998V13.9999C17.9998 14.404 18.2439 14.7689 18.6169 14.924C18.9908 15.0789 19.4209 14.9929 19.7067 14.707L23.7068 10.707C24.0977 10.316 24.0977 9.68397 23.7068 9.29304Z" fill="#757575"/>
</g>
<defs>
<clipPath id="clip0_98_317">
<rect width="24" height="24" fill="white"/>
</clipPath>
</defs>
</svg>
