<svg width="78" height="50" viewBox="0 0 78 50" fill="none" xmlns="http://www.w3.org/2000/svg">
<path d="M53 21.5C58.81 21.5 63.465 16.81 63.465 11C63.465 5.19 58.81 0.5 53 0.5C47.19 0.5 42.5 5.19 42.5 11C42.5 16.81 47.19 21.5 53 21.5ZM25 21.5C30.81 21.5 35.465 16.81 35.465 11C35.465 5.19 30.81 0.5 25 0.5C19.19 0.5 14.5 5.19 14.5 11C14.5 16.81 19.19 21.5 25 21.5ZM25 28.5C16.845 28.5 0.5 32.595 0.5 40.75V49.5H49.5V40.75C49.5 32.595 33.155 28.5 25 28.5ZM53 28.5C51.985 28.5 50.83 28.57 49.605 28.675C53.665 31.615 56.5 35.57 56.5 40.75V49.5H77.5V40.75C77.5 32.595 61.155 28.5 53 28.5Z" fill="white"/>
</svg>
