<svg width="20" height="18" viewBox="0 0 20 18" fill="none" xmlns="http://www.w3.org/2000/svg">
<path fill-rule="evenodd" clip-rule="evenodd" d="M12.2573 7.62864C12.2573 10.185 10.185 12.2573 7.62864 12.2573C5.07231 12.2573 3 10.185 3 7.62864C3 5.07231 5.07231 3 7.62864 3C10.185 3 12.2573 5.07231 12.2573 7.62864ZM12.6192 13.3985C11.2815 14.5566 9.53689 15.2573 7.62864 15.2573C3.41546 15.2573 0 11.8418 0 7.62864C0 3.41546 3.41546 0 7.62864 0C11.8418 0 15.2573 3.41546 15.2573 7.62864C15.2573 9.01749 14.8861 10.3197 14.2376 11.4414C14.2408 11.4437 14.2439 11.4461 14.247 11.4484L19.0692 15.1059C19.6286 15.5302 19.7382 16.3278 19.3138 16.8873C18.8895 17.4467 18.092 17.5563 17.5325 17.1319L12.7103 13.4745C12.6785 13.4503 12.6481 13.425 12.6192 13.3985Z" fill="#ECECEC"/>
</svg>
