<svg width="42" height="40" viewBox="0 0 42 40" fill="none" xmlns="http://www.w3.org/2000/svg">
<path d="M20.9727 0.000212008C20.5097 0.00740842 20.0685 0.196964 19.7459 0.527277C19.4233 0.857591 19.2457 1.30167 19.2521 1.76206V3.50015C19.2488 3.73047 19.2916 3.95914 19.378 4.17287C19.4643 4.3866 19.5926 4.58112 19.7552 4.74515C19.9178 4.90917 20.1116 5.03942 20.3253 5.12831C20.539 5.21721 20.7684 5.26299 21 5.26299C21.2316 5.26299 21.461 5.21721 21.6747 5.12831C21.8884 5.03942 22.0822 4.90917 22.2448 4.74515C22.4074 4.58112 22.5357 4.3866 22.622 4.17287C22.7084 3.95914 22.7512 3.73047 22.7479 3.50015V1.76206C22.7511 1.52953 22.7074 1.29871 22.6192 1.08329C22.5311 0.867874 22.4004 0.672229 22.2349 0.507943C22.0694 0.343657 21.8724 0.21407 21.6555 0.126858C21.4387 0.0396455 21.2065 -0.00341992 20.9727 0.000212008ZM7.3853 5.60487C7.03715 5.60494 6.69696 5.70838 6.40831 5.90193C6.11966 6.09548 5.8957 6.37032 5.76514 6.69125C5.63457 7.01217 5.60335 7.36454 5.67548 7.70322C5.7476 8.0419 5.91977 8.35145 6.16995 8.59221L7.40578 9.82109C7.56685 9.98789 7.75976 10.1211 7.97323 10.2128C8.1867 10.3046 8.41644 10.353 8.64898 10.3554C8.88152 10.3577 9.1122 10.3139 9.3275 10.2265C9.54281 10.1391 9.73841 10.0098 9.90285 9.84633C10.0673 9.68282 10.1973 9.48832 10.2852 9.27423C10.3731 9.06014 10.4171 8.83076 10.4148 8.59952C10.4124 8.36829 10.3637 8.13985 10.2714 7.92758C10.1791 7.71531 10.0452 7.52348 9.87746 7.36332L8.64162 6.13444C8.47862 5.96692 8.2834 5.8337 8.06757 5.74273C7.85174 5.65175 7.61972 5.60487 7.3853 5.60487ZM34.5601 5.60826C34.106 5.62172 33.675 5.81044 33.3584 6.13444L32.1225 7.36332C31.9548 7.52348 31.8209 7.71531 31.7286 7.92758C31.6363 8.13985 31.5876 8.36829 31.5852 8.59952C31.5829 8.83076 31.6269 9.06013 31.7148 9.27422C31.8027 9.48831 31.9327 9.68281 32.0972 9.84633C32.2616 10.0098 32.4572 10.1391 32.6725 10.2265C32.8878 10.3139 33.1185 10.3577 33.351 10.3554C33.5836 10.353 33.8133 10.3045 34.0268 10.2128C34.2402 10.1211 34.4332 9.98789 34.5942 9.82109L35.8301 8.59221C36.0826 8.34807 36.2552 8.03375 36.325 7.69045C36.3948 7.34714 36.3588 6.99086 36.2215 6.66829C36.0842 6.34573 35.8521 6.07193 35.5556 5.88277C35.2592 5.69362 34.9122 5.59794 34.5601 5.60826ZM21 8.71442C14.253 8.71442 8.76452 14.172 8.76452 20.881C8.76452 25.7216 11.6294 29.899 15.7562 31.8561V36.5238C15.7562 38.4409 17.3241 40 19.2521 40H22.7479C24.6759 40 26.2438 38.4409 26.2438 36.5238V31.8561C30.3706 29.899 33.2355 25.7216 33.2355 20.881C33.2355 14.172 27.747 8.71442 21 8.71442ZM1.77282 19.1429C1.5412 19.1397 1.31124 19.1822 1.0963 19.2681C0.881359 19.354 0.685729 19.4815 0.520778 19.6432C0.355827 19.805 0.224844 19.9977 0.135441 20.2102C0.046039 20.4226 0 20.6507 0 20.881C0 21.1114 0.046039 21.3394 0.135441 21.5519C0.224844 21.7644 0.355827 21.9571 0.520778 22.1188C0.685729 22.2805 0.881359 22.4081 1.0963 22.4939C1.31124 22.5798 1.5412 22.6224 1.77282 22.6191H3.52075C3.75237 22.6224 3.98233 22.5798 4.19727 22.4939C4.41221 22.4081 4.60784 22.2805 4.77279 22.1188C4.93774 21.9571 5.06872 21.7644 5.15812 21.5519C5.24753 21.3394 5.29357 21.1114 5.29357 20.881C5.29357 20.6507 5.24753 20.4226 5.15812 20.2102C5.06872 19.9977 4.93774 19.805 4.77279 19.6432C4.60784 19.4815 4.41221 19.354 4.19727 19.2681C3.98233 19.1822 3.75237 19.1397 3.52075 19.1429H1.77282ZM38.4793 19.1429C38.2476 19.1397 38.0177 19.1822 37.8027 19.2681C37.5878 19.354 37.3922 19.4815 37.2272 19.6432C37.0623 19.805 36.9313 19.9977 36.8419 20.2102C36.7525 20.4226 36.7064 20.6507 36.7064 20.881C36.7064 21.1114 36.7525 21.3394 36.8419 21.5519C36.9313 21.7644 37.0623 21.9571 37.2272 22.1188C37.3922 22.2805 37.5878 22.4081 37.8027 22.4939C38.0177 22.5798 38.2476 22.6224 38.4793 22.6191H40.2272C40.4588 22.6224 40.6888 22.5798 40.9037 22.4939C41.1186 22.4081 41.3143 22.2805 41.4792 22.1188C41.6442 21.9571 41.7752 21.7644 41.8646 21.5519C41.954 21.3394 42 21.1114 42 20.881C42 20.6507 41.954 20.4226 41.8646 20.2102C41.7752 19.9977 41.6442 19.805 41.4792 19.6432C41.3143 19.4815 41.1186 19.354 40.9037 19.2681C40.6888 19.1822 40.4588 19.1397 40.2272 19.1429H38.4793ZM8.60748 31.4148C8.15337 31.4282 7.72237 31.617 7.40578 31.941L6.16995 33.1699C6.0022 33.33 5.86827 33.5218 5.77601 33.7341C5.68375 33.9464 5.63501 34.1748 5.63265 34.4061C5.63028 34.6373 5.67434 34.8667 5.76224 35.0808C5.85015 35.2948 5.98012 35.4893 6.14456 35.6529C6.309 35.8164 6.5046 35.9456 6.7199 36.033C6.93521 36.1204 7.16588 36.1642 7.39842 36.1619C7.63097 36.1595 7.8607 36.1111 8.07417 36.0193C8.28764 35.9276 8.48056 35.7944 8.64162 35.6276L9.87746 34.3987C10.13 34.1546 10.3026 33.8403 10.3724 33.497C10.4422 33.1537 10.4062 32.7974 10.2689 32.4748C10.1316 32.1523 9.89952 31.8785 9.60305 31.6893C9.30659 31.5002 8.95957 31.4045 8.60748 31.4148ZM33.3413 31.4148C32.9936 31.4149 32.6538 31.5181 32.3654 31.7112C32.0769 31.9043 31.853 32.1786 31.7222 32.499C31.5913 32.8193 31.5595 33.1712 31.6308 33.5096C31.7022 33.848 31.8734 34.1576 32.1225 34.3987L33.3584 35.6276C33.5194 35.7944 33.7124 35.9276 33.9258 36.0193C34.1393 36.1111 34.369 36.1595 34.6016 36.1619C34.8341 36.1642 35.0648 36.1204 35.2801 36.033C35.4954 35.9456 35.691 35.8164 35.8554 35.6529C36.0199 35.4893 36.1498 35.2948 36.2377 35.0808C36.3256 34.8667 36.3697 34.6373 36.3673 34.4061C36.365 34.1748 36.3162 33.9464 36.224 33.7341C36.1317 33.5218 35.9978 33.33 35.8301 33.1699L34.5942 31.941C34.4313 31.7745 34.2365 31.6421 34.0213 31.5518C33.8061 31.4614 33.5749 31.4148 33.3413 31.4148Z" fill="white"/>
</svg>
