<svg width="46" height="33" viewBox="0 0 46 33" fill="none" xmlns="http://www.w3.org/2000/svg">
<circle cx="6.09675" cy="2.83155" r="0.724436" fill="white"/>
<circle cx="2.82234" cy="2.83155" r="0.724436" fill="white"/>
<path d="M0.710693 0.71991H44.8623V31.872C44.8623 32.2862 44.5265 32.622 44.1123 32.622H1.46069C1.04648 32.622 0.710693 32.2862 0.710693 31.872V0.71991Z" stroke="white" stroke-width="0.5"/>
<path d="M0.710693 0.71991H44.8623V4.4751C44.8623 4.88932 44.5265 5.2251 44.1123 5.2251H1.46069C1.04648 5.2251 0.710693 4.88932 0.710693 4.4751V0.71991Z" stroke="white" stroke-width="0.5"/>
<rect x="25.6187" y="8.17529" width="16.662" height="22.2599" rx="1" fill="white"/>
<rect x="3.49048" y="8.17529" width="8.69323" height="8.49566" rx="1" fill="white"/>
<rect x="3.49048" y="18.3832" width="19.2963" height="12.052" rx="1" fill="white"/>
<rect x="14.0933" y="8.17529" width="8.69323" height="8.49566" rx="1" fill="white"/>
</svg>
