<svg width="46" height="38" viewBox="0 0 46 38" fill="none" xmlns="http://www.w3.org/2000/svg">
<path d="M15.4245 37.0014H16.4523C16.9975 37.0014 17.5204 36.7849 17.9059 36.3994C18.2914 36.0139 18.508 35.491 18.508 34.9458V32.8902C18.508 31.7998 18.9411 30.7541 19.7121 29.9831C20.4831 29.212 21.5289 28.7789 22.6192 28.7789C23.7096 28.7789 24.7553 29.212 25.5263 29.9831C26.2974 30.7541 26.7305 31.7998 26.7305 32.8902V34.4936C26.7313 34.8241 26.7973 35.1512 26.9246 35.4561C27.052 35.7611 27.2382 36.038 27.4727 36.2709C27.7071 36.5038 27.9852 36.6883 28.291 36.8136C28.5968 36.939 28.9243 37.0028 29.2548 37.0014C33.3295 37.0459 37.2644 35.5171 40.2403 32.7334C43.2162 29.9497 45.0039 26.1256 45.2312 22.057C45.2946 19.9929 44.9426 17.9372 44.1962 16.0117C43.4498 14.0863 42.3242 12.3305 40.8862 10.8484C39.4483 9.3663 37.7272 8.1882 35.8252 7.38401C33.9232 6.57983 31.879 6.16594 29.814 6.16691H24.6749V2.05564C24.6749 1.51045 24.4583 0.987588 24.0728 0.602082C23.6873 0.216575 23.1644 0 22.6192 0C22.0741 0 21.5512 0.216575 21.1657 0.602082C20.7802 0.987588 20.5636 1.51045 20.5636 2.05564V6.16691H15.9837C11.909 6.12246 7.9741 7.6512 4.99818 10.4349C2.02226 13.2186 0.234571 17.0428 0.00725174 21.1114C-0.0560761 23.1754 0.295899 25.2312 1.04229 27.1566C1.78867 29.082 2.91426 30.8379 4.35224 32.32C5.79022 33.802 7.51129 34.9801 9.4133 35.7843C11.3153 36.5885 13.3595 37.0024 15.4245 37.0014V37.0014ZM15.9837 10.2782H29.814C31.3286 10.2775 32.8279 10.5811 34.2229 11.171C35.6178 11.7609 36.8801 12.6251 37.9346 13.7122C38.9892 14.7994 39.8146 16.0873 40.3618 17.4996C40.9089 18.9119 41.1668 20.4198 41.12 21.9336C40.9608 24.6638 39.8422 27.25 37.9616 29.2355C36.081 31.2211 33.5593 32.4783 30.8418 32.7853C30.8379 31.7055 30.6213 30.6371 30.2045 29.641C29.7876 28.6449 29.1787 27.7406 28.4124 26.9798C27.6461 26.2191 26.7374 25.6167 25.7383 25.2071C24.7392 24.7975 23.6692 24.5887 22.5894 24.5926C20.4087 24.6005 18.3204 25.4744 16.7839 27.022C16.0232 27.7883 15.4208 28.6969 15.0112 29.696C14.6016 30.6951 14.3928 31.7651 14.3967 32.8449C11.5264 32.5843 8.86405 31.2374 6.95368 29.0794C5.0433 26.9215 4.02916 24.1154 4.11852 21.2347C4.30543 18.2322 5.64323 15.4174 7.85339 13.3765C10.0636 11.3356 12.9758 10.2258 15.9837 10.2782V10.2782Z" fill="white"/>
<path d="M10.2851 21.5842H12.3408V23.6398C12.3408 24.185 12.5573 24.7079 12.9428 25.0934C13.3284 25.4789 13.8512 25.6954 14.3964 25.6954C14.9416 25.6954 15.4644 25.4789 15.85 25.0934C16.2355 24.7079 16.452 24.185 16.452 23.6398V21.5842H18.5077C19.0529 21.5842 19.5757 21.3676 19.9612 20.9821C20.3467 20.5966 20.5633 20.0737 20.5633 19.5285C20.5633 18.9833 20.3467 18.4605 19.9612 18.075C19.5757 17.6895 19.0529 17.4729 18.5077 17.4729H16.452V15.4173C16.452 14.8721 16.2355 14.3492 15.85 13.9637C15.4644 13.5782 14.9416 13.3616 14.3964 13.3616C13.8512 13.3616 13.3284 13.5782 12.9428 13.9637C12.5573 14.3492 12.3408 14.8721 12.3408 15.4173V17.4729H10.2851C9.73994 17.4729 9.21708 17.6895 8.83157 18.075C8.44607 18.4605 8.22949 18.9833 8.22949 19.5285C8.22949 20.0737 8.44607 20.5966 8.83157 20.9821C9.21708 21.3676 9.73994 21.5842 10.2851 21.5842Z" fill="white"/>
<path d="M34.9529 18.5007C36.0882 18.5007 37.0085 17.5804 37.0085 16.4451C37.0085 15.3098 36.0882 14.3895 34.9529 14.3895C33.8176 14.3895 32.8972 15.3098 32.8972 16.4451C32.8972 17.5804 33.8176 18.5007 34.9529 18.5007Z" fill="white"/>
<path d="M30.8415 24.6677C31.9768 24.6677 32.8972 23.7473 32.8972 22.612C32.8972 21.4767 31.9768 20.5564 30.8415 20.5564C29.7062 20.5564 28.7859 21.4767 28.7859 22.612C28.7859 23.7473 29.7062 24.6677 30.8415 24.6677Z" fill="white"/>
</svg>
