<svg width="31" height="36" viewBox="0 0 31 36" fill="none" xmlns="http://www.w3.org/2000/svg">
<path d="M29.7272 14.6512H28.8802C28.8101 11.8916 27.9098 9.21725 26.2968 6.97705C24.6839 4.73684 22.4332 3.03481 19.8383 2.09303H26.8564C26.9583 2.48763 27.2006 2.83153 27.5379 3.06026C27.8752 3.28899 28.2843 3.38685 28.6886 3.3355C29.0929 3.28414 29.4646 3.0871 29.734 2.78131C30.0034 2.47552 30.1521 2.08196 30.1521 1.67442C30.1521 1.26688 30.0034 0.873328 29.734 0.567535C29.4646 0.261741 29.0929 0.0647018 28.6886 0.0133497C28.2843 -0.0380024 27.8752 0.0598586 27.5379 0.288589C27.2006 0.51732 26.9583 0.861217 26.8564 1.25582H16.7505V0.418609C16.7505 0.307588 16.7064 0.201114 16.6278 0.122611C16.5493 0.0441069 16.4429 4.07681e-06 16.3319 4.07681e-06H13.8202C13.7092 4.07681e-06 13.6027 0.0441069 13.5242 0.122611C13.4457 0.201114 13.4016 0.307588 13.4016 0.418609V1.25582H3.29567C3.19378 0.861217 2.95148 0.51732 2.61418 0.288589C2.27687 0.0598586 1.86773 -0.0380024 1.46343 0.0133497C1.05914 0.0647018 0.687453 0.261741 0.418044 0.567535C0.148635 0.873328 0 1.26688 0 1.67442C0 2.08196 0.148635 2.47552 0.418044 2.78131C0.687453 3.0871 1.05914 3.28414 1.46343 3.3355C1.86773 3.38685 2.27687 3.28899 2.61418 3.06026C2.95148 2.83153 3.19378 2.48763 3.29567 2.09303H10.3137C7.71883 3.03481 5.46811 4.73684 3.85516 6.97705C2.24221 9.21725 1.34194 11.8916 1.2718 14.6512H0.424877C0.313856 14.6512 0.207382 14.6953 0.128879 14.7738C0.050375 14.8523 0.00627203 14.9588 0.00627203 15.0698V17.5814C0.00627203 17.6924 0.050375 17.7989 0.128879 17.8774C0.207382 17.9559 0.313856 18 0.424877 18H2.9365C3.04752 18 3.154 17.9559 3.2325 17.8774C3.31101 17.7989 3.35511 17.6924 3.35511 17.5814V15.0698C3.35511 14.9588 3.31101 14.8523 3.2325 14.7738C3.154 14.6953 3.04752 14.6512 2.9365 14.6512H2.10909C2.19309 11.5691 3.37823 8.61915 5.44979 6.33561C7.52136 4.05208 10.3423 2.58607 13.4016 2.20316V2.93024C13.4016 3.04126 13.4457 3.14773 13.5242 3.22623C13.6027 3.30474 13.7092 3.34884 13.8202 3.34884H16.3319C16.4429 3.34884 16.5493 3.30474 16.6278 3.22623C16.7064 3.14773 16.7505 3.04126 16.7505 2.93024V2.20316C19.8098 2.58607 22.6307 4.05208 24.7023 6.33561C26.7738 8.61915 27.959 11.5691 28.043 14.6512H27.2156C27.1045 14.6512 26.9981 14.6953 26.9196 14.7738C26.8411 14.8523 26.797 14.9588 26.797 15.0698V17.5814C26.797 17.6924 26.8411 17.7989 26.9196 17.8774C26.9981 17.9559 27.1045 18 27.2156 18H29.7272C29.8382 18 29.9447 17.9559 30.0232 17.8774C30.1017 17.7989 30.1458 17.6924 30.1458 17.5814V15.0698C30.1458 14.9588 30.1017 14.8523 30.0232 14.7738C29.9447 14.6953 29.8382 14.6512 29.7272 14.6512Z" fill="white"/>
<path d="M16.2877 5.25453C16.2455 5.17017 16.1761 5.10252 16.0907 5.06254C16.0052 5.02256 15.9088 5.0126 15.817 5.03427C15.7252 5.05594 15.6435 5.10798 15.5849 5.18194C15.5264 5.2559 15.4946 5.34746 15.4946 5.44177V19.0088C15.4946 19.0898 15.5182 19.1691 15.5623 19.237C15.6065 19.3049 15.6695 19.3585 15.7436 19.3914C16.0965 19.5448 16.3859 19.8152 16.5629 20.1569C16.7399 20.4987 16.7937 20.891 16.7154 21.2679C16.637 21.6447 16.4312 21.983 16.1326 22.2259C15.834 22.4688 15.4609 22.6014 15.076 22.6014C14.6911 22.6014 14.318 22.4688 14.0194 22.2259C13.7208 21.983 13.515 21.6447 13.4367 21.2679C13.3583 20.891 13.4121 20.4987 13.5891 20.1569C13.7661 19.8152 14.0555 19.5448 14.4085 19.3914C14.4825 19.3585 14.5455 19.3049 14.5897 19.237C14.6339 19.1691 14.6574 19.0898 14.6574 19.0088V5.44177C14.6574 5.34746 14.6256 5.2559 14.5671 5.18194C14.5086 5.10798 14.4268 5.05594 14.335 5.03427C14.2432 5.0126 14.1468 5.02256 14.0614 5.06254C13.9759 5.10252 13.9065 5.17017 13.8644 5.25453L5.91087 21.1615C5.88182 21.2197 5.8667 21.2838 5.8667 21.3488C5.8667 21.4137 5.88182 21.4779 5.91087 21.536L8.95676 27.6278H21.1953L24.2412 21.536C24.2702 21.4779 24.2853 21.4137 24.2853 21.3488C24.2853 21.2838 24.2702 21.2197 24.2412 21.1615L16.2877 5.25453Z" fill="white"/>
<path d="M22.1922 28.4651H7.95962C7.72843 28.4651 7.54102 28.6525 7.54102 28.8837V31.3953C7.54102 31.6265 7.72843 31.8139 7.95962 31.8139H22.1922C22.4234 31.8139 22.6108 31.6265 22.6108 31.3953V28.8837C22.6108 28.6525 22.4234 28.4651 22.1922 28.4651Z" fill="white"/>
<path d="M8.79688 35.5814C8.79688 35.6924 8.84098 35.7989 8.91948 35.8774C8.99798 35.9559 9.10446 36 9.21548 36H20.9364C21.0474 36 21.1539 35.9559 21.2324 35.8774C21.3109 35.7989 21.355 35.6924 21.355 35.5814V32.6511H8.79688V35.5814Z" fill="white"/>
</svg>
